<svg 
 xmlns="http://www.w3.org/2000/svg"
 xmlns:xlink="http://www.w3.org/1999/xlink"
 width="146px" height="162px">
<path fill-rule="evenodd"  fill="rgb(255, 255, 255)"
 d="M109.945,161.999 L36.078,161.999 C16.190,161.999 0.011,145.762 0.011,125.804 L0.011,58.836 C0.011,55.531 2.680,52.853 5.972,52.853 C9.264,52.853 11.933,55.531 11.933,58.836 L11.933,125.804 C11.933,139.164 22.764,150.034 36.078,150.034 L109.945,150.034 C123.258,150.034 134.090,139.164 134.090,125.804 L134.090,51.672 C134.090,38.312 123.258,27.441 109.945,27.441 L55.867,27.441 L55.867,36.109 C55.867,41.434 49.977,44.632 45.535,41.718 L23.130,27.016 C19.099,24.370 19.099,18.443 23.130,15.798 L45.535,1.096 C49.977,-1.819 55.867,1.379 55.867,6.705 L55.867,15.477 L109.945,15.477 C129.832,15.477 146.012,31.714 146.012,51.672 L146.012,125.804 C146.012,145.762 129.832,161.999 109.945,161.999 Z"/>
</svg>