<svg 
 xmlns="http://www.w3.org/2000/svg"
 xmlns:xlink="http://www.w3.org/1999/xlink"
 width="53px" height="53px">
<defs>
<filter id="Filter_0">
    <feFlood flood-color="rgb(255, 255, 255)" flood-opacity="1" result="floodOut" />
    <feComposite operator="atop" in="floodOut" in2="SourceGraphic" result="compOut" />
    <feBlend mode="normal" in="compOut" in2="SourceGraphic" />
</filter>

</defs>
<g filter="url(#Filter_0)">
<path fill-rule="evenodd"  fill="rgb(51, 51, 51)"
 d="M28.622,26.573 L52.414,50.429 C53.000,51.017 53.000,51.969 52.414,52.556 C52.121,52.850 51.737,52.997 51.353,52.997 C50.969,52.997 50.585,52.850 50.292,52.556 L26.500,28.701 L2.708,52.556 C2.415,52.850 2.031,52.997 1.647,52.997 C1.263,52.997 0.879,52.850 0.586,52.556 C0.000,51.969 0.000,51.017 0.586,50.429 L24.378,26.573 L0.586,2.718 C0.000,2.130 0.000,1.178 0.586,0.591 C1.172,0.003 2.122,0.003 2.708,0.591 L26.500,24.446 L50.292,0.591 C50.878,0.003 51.827,0.003 52.414,0.591 C53.000,1.178 53.000,2.130 52.414,2.718 L28.622,26.573 Z"/>
</g>
</svg>