<svg 
 xmlns="http://www.w3.org/2000/svg"
 xmlns:xlink="http://www.w3.org/1999/xlink"
 width="62px" height="59px">
<path fill-rule="evenodd"  fill="rgb(245, 136, 80)"
 d="M36.613,3.653 L41.078,12.718 C41.991,14.574 43.757,15.859 45.801,16.157 L55.783,17.610 C60.928,18.360 62.983,24.696 59.260,28.332 L52.036,35.388 C50.558,36.832 49.883,38.913 50.232,40.952 L51.937,50.915 C52.816,56.050 47.438,59.966 42.836,57.541 L33.907,52.837 C32.080,51.875 29.897,51.875 28.070,52.837 L19.141,57.541 C14.539,59.966 9.161,56.050 10.039,50.915 L11.745,40.952 C12.094,38.913 11.419,36.832 9.941,35.388 L2.717,28.332 C-1.006,24.696 1.048,18.360 6.193,17.610 L16.176,16.157 C18.219,15.859 19.985,14.574 20.899,12.718 L25.364,3.653 C27.664,-1.019 34.312,-1.019 36.613,3.653 Z"/>
</svg>