<svg 
 xmlns="http://www.w3.org/2000/svg"
 xmlns:xlink="http://www.w3.org/1999/xlink"
 width="208px" height="66px">
<path fill-rule="evenodd"  fill="rgb(255, 255, 255)"
 d="M35.786,7.095 C37.412,5.475 37.412,2.848 35.786,1.227 C34.159,-0.393 31.523,-0.393 29.897,1.227 L1.168,29.856 C0.301,30.720 -0.068,31.866 -0.011,32.998 C-0.068,34.130 0.301,35.276 1.168,36.141 L29.897,64.769 C31.523,66.389 34.159,66.389 35.786,64.769 C37.412,63.148 37.412,60.521 35.786,58.901 L13.956,37.148 L203.836,37.148 C206.136,37.148 208.000,35.290 208.000,32.998 C208.000,30.707 206.136,28.849 203.836,28.849 L13.956,28.849 L35.786,7.095 Z"/>
</svg>