<svg 
 xmlns="http://www.w3.org/2000/svg"
 xmlns:xlink="http://www.w3.org/1999/xlink"
 width="41px" height="42px">
<path fill-rule="evenodd"  fill="rgb(66, 195, 191)"
 d="M39.491,22.500 L18.767,22.500 C18.086,25.355 15.515,27.487 12.448,27.487 C9.381,27.487 6.809,25.355 6.128,22.500 L1.502,22.500 C0.672,22.500 -0.001,21.828 -0.001,21.000 C-0.001,20.172 0.672,19.500 1.502,19.500 L6.128,19.500 C6.809,16.645 9.381,14.513 12.448,14.513 C15.515,14.513 18.086,16.645 18.767,19.500 L39.491,19.500 C40.321,19.500 40.994,20.172 40.994,21.000 C40.994,21.828 40.321,22.500 39.491,22.500 ZM15.589,19.500 C15.025,18.329 13.834,17.513 12.448,17.513 C11.061,17.513 9.870,18.329 9.306,19.500 C9.086,19.956 8.952,20.461 8.952,21.000 C8.952,21.539 9.086,22.044 9.306,22.500 C9.870,23.671 11.061,24.487 12.448,24.487 C13.834,24.487 15.025,23.671 15.589,22.500 C15.809,22.044 15.943,21.539 15.943,21.000 C15.943,20.461 15.809,19.956 15.589,19.500 ZM39.491,7.987 L34.479,7.987 C33.798,10.842 31.227,12.975 28.160,12.975 C25.093,12.975 22.521,10.842 21.840,7.987 L1.502,7.987 C0.672,7.987 -0.001,7.315 -0.001,6.487 C-0.001,5.659 0.672,4.987 1.502,4.987 L21.840,4.987 C22.521,2.132 25.093,-0.000 28.160,-0.000 C31.227,-0.000 33.798,2.132 34.479,4.987 L39.491,4.987 C40.321,4.987 40.994,5.659 40.994,6.487 C40.994,7.315 40.321,7.987 39.491,7.987 ZM31.301,4.987 C30.737,3.816 29.547,3.000 28.160,3.000 C26.773,3.000 25.582,3.816 25.018,4.987 C24.798,5.443 24.665,5.948 24.665,6.487 C24.665,7.027 24.798,7.531 25.018,7.987 C25.582,9.158 26.773,9.975 28.160,9.975 C29.547,9.975 30.737,9.158 31.301,7.987 C31.521,7.531 31.655,7.027 31.655,6.487 C31.655,5.948 31.521,5.443 31.301,4.987 ZM1.502,34.013 L21.840,34.013 C22.521,31.158 25.093,29.025 28.160,29.025 C31.227,29.025 33.798,31.158 34.479,34.013 L39.491,34.013 C40.321,34.013 40.994,34.685 40.994,35.513 C40.994,36.341 40.321,37.013 39.491,37.013 L34.479,37.013 C33.798,39.868 31.227,42.000 28.160,42.000 C25.093,42.000 22.521,39.868 21.840,37.013 L1.502,37.013 C0.672,37.013 -0.001,36.341 -0.001,35.513 C-0.001,34.685 0.672,34.013 1.502,34.013 ZM25.018,37.013 C25.582,38.184 26.773,39.000 28.160,39.000 C29.547,39.000 30.737,38.184 31.301,37.013 C31.521,36.557 31.655,36.052 31.655,35.513 C31.655,34.974 31.521,34.469 31.301,34.013 C30.737,32.842 29.547,32.025 28.160,32.025 C26.773,32.025 25.582,32.842 25.018,34.013 C24.798,34.469 24.665,34.974 24.665,35.513 C24.665,36.052 24.798,36.557 25.018,37.013 Z"/>
</svg>