<svg 
 xmlns="http://www.w3.org/2000/svg"
 xmlns:xlink="http://www.w3.org/1999/xlink"
 width="60px" height="60px">
<path fill-rule="evenodd"  fill="rgb(72, 72, 72)"
 d="M33.474,30.113 L59.006,4.481 C59.974,3.508 59.974,1.933 59.006,0.960 C58.037,-0.013 56.466,-0.013 55.497,0.960 L29.966,26.591 L4.435,0.960 C3.467,-0.013 1.895,-0.013 0.928,0.960 C-0.041,1.933 -0.041,3.508 0.928,4.481 L26.459,30.113 L0.928,55.744 C-0.041,56.717 -0.041,58.293 0.928,59.265 C1.412,59.752 2.047,59.995 2.681,59.995 C3.316,59.995 3.951,59.752 4.435,59.265 L29.966,33.634 L55.497,59.265 C55.982,59.752 56.617,59.995 57.251,59.995 C57.886,59.995 58.521,59.752 59.006,59.265 C59.974,58.293 59.974,56.717 59.006,55.744 L33.474,30.113 Z"/>
</svg>