<svg 
 xmlns="http://www.w3.org/2000/svg"
 xmlns:xlink="http://www.w3.org/1999/xlink"
 width="60px" height="58px">
<path fill-rule="evenodd"  fill="rgb(72, 72, 72)"
 d="M48.965,35.969 C45.795,35.969 42.941,37.319 40.926,39.463 L21.834,32.202 C21.986,31.473 22.069,30.719 22.069,29.945 C22.069,28.906 21.914,27.905 21.644,26.952 L40.791,18.384 C42.811,20.615 45.723,22.028 48.965,22.028 C55.050,22.028 60.000,17.086 60.000,11.012 C60.000,4.938 55.050,-0.004 48.965,-0.004 C42.881,-0.004 37.931,4.938 37.931,11.012 C37.931,12.050 38.086,13.051 38.356,14.005 L19.209,22.572 C17.188,20.341 14.277,18.930 11.035,18.930 C4.950,18.930 -0.000,23.871 -0.000,29.945 C-0.000,36.019 4.950,40.961 11.035,40.961 C14.553,40.961 17.685,39.302 19.707,36.734 L38.395,43.841 C38.097,44.838 37.931,45.892 37.931,46.985 C37.931,53.058 42.881,58.000 48.965,58.000 C55.050,58.000 60.000,53.058 60.000,46.985 C60.000,40.911 55.050,35.969 48.965,35.969 ZM48.965,4.988 C52.293,4.988 54.999,7.691 54.999,11.012 C54.999,14.334 52.293,17.036 48.965,17.036 C45.638,17.036 42.931,14.334 42.931,11.012 C42.931,7.691 45.638,4.988 48.965,4.988 ZM11.035,35.969 C7.706,35.969 5.000,33.267 5.000,29.945 C5.000,26.623 7.706,23.921 11.035,23.921 C14.362,23.921 17.069,26.623 17.069,29.945 C17.069,33.267 14.362,35.969 11.035,35.969 ZM48.965,53.008 C45.638,53.008 42.931,50.306 42.931,46.985 C42.931,43.664 45.638,40.961 48.965,40.961 C52.293,40.961 54.999,43.664 54.999,46.985 C54.999,50.306 52.293,53.008 48.965,53.008 Z"/>
</svg>