<svg xmlns="http://www.w3.org/2000/svg" viewBox="-2454 -5120 69 83"><defs><style>.a{fill:#484848;}</style></defs><g transform="translate(-2454 -5119.9)"><g transform="translate(0 22.674)"><rect class="a" width="13.496" height="1.687" transform="translate(19.232 54.152)"/><rect class="a" width="13.496" height="1.687" transform="translate(37.79 54.152)"/><path class="a" d="M33.569,51.552,33.4,49.865A12.542,12.542,0,0,0,44.366,38.9l1.687.169A14.166,14.166,0,0,1,33.569,51.552Z" transform="translate(22.947 4.118)"/><path class="a" d="M44.715,40.634A12.66,12.66,0,0,0,32.4,31.187V29.5A14.1,14.1,0,0,1,46.234,40.3Z" transform="translate(22.26 -2.339)"/><rect class="a" width="13.496" height="1.687" transform="translate(36.103 27.161)"/><rect class="a" width="13.496" height="1.687" transform="translate(17.545 27.161)"/><path class="a" d="M12.484,35.484A14.158,14.158,0,0,1,0,23.169L1.687,23A12.542,12.542,0,0,0,12.653,33.965Z" transform="translate(0 -6.805)"/><path class="a" d="M1.887,24.7.2,24.2A14.387,14.387,0,0,1,14.034,13.4v1.687A12.806,12.806,0,0,0,1.887,24.7Z" transform="translate(0.137 -13.4)"/><rect class="a" width="13.496" height="1.687" transform="translate(19.232 0.169)"/></g><g transform="translate(31.885 -0.1)"><path class="a" d="M30.372,31.109a.861.861,0,0,1-.844-.675c-1.181-3.88-3.374-6.411-5.567-8.772C21.431,18.794,18.9,16.1,18.9,11.372A11.825,11.825,0,0,1,30.372-.1,11.825,11.825,0,0,1,41.844,11.372c0,4.724-2.531,7.423-5.061,10.291-2.193,2.362-4.386,4.892-5.567,8.772A.861.861,0,0,1,30.372,31.109Zm0-29.354a10.26,10.26,0,0,0-9.785,9.785c0,4.049,2.193,6.411,4.555,9.278A26.362,26.362,0,0,1,30.2,28.073a30.543,30.543,0,0,1,5.061-7.254c2.531-2.7,4.555-5.061,4.555-9.278C40.157,6.479,35.433,1.756,30.372,1.756Z" transform="translate(-18.9 0.1)"/><path class="a" d="M27.486,12.972A4.466,4.466,0,0,1,23.1,8.586a4.386,4.386,0,0,1,8.773,0A4.356,4.356,0,0,1,27.486,12.972Zm0-7.085a2.7,2.7,0,1,0,2.7,2.7A2.665,2.665,0,0,0,27.486,5.887Z" transform="translate(-16.014 3.054)"/></g><g transform="translate(2.362 60.463)"><path class="a" d="M9.667,58.237c-.337,0-.675-.169-.675-.506a16.424,16.424,0,0,0-3.88-6.242C3.256,49.465,1.4,47.44,1.4,44.066A8.507,8.507,0,0,1,9.667,35.8a8.507,8.507,0,0,1,8.267,8.266c0,3.374-1.856,5.4-3.711,7.423a15.209,15.209,0,0,0-3.88,6.242C10.341,58.068,10,58.237,9.667,58.237Zm0-20.919a7,7,0,0,0-6.748,6.748c0,2.868,1.518,4.555,3.205,6.411a22.872,22.872,0,0,1,3.543,4.892,22.873,22.873,0,0,1,3.543-4.892c1.687-2.024,3.205-3.543,3.205-6.411A7,7,0,0,0,9.667,37.318Z" transform="translate(-1.4 -35.8)"/><path class="a" d="M7.605,45.211A3.2,3.2,0,0,1,4.4,42.005,3.318,3.318,0,0,1,7.605,38.8a3.21,3.21,0,1,1,0,6.411Zm0-4.892a1.691,1.691,0,0,0-1.687,1.687,1.814,1.814,0,0,0,1.687,1.687,1.687,1.687,0,1,0,0-3.374Z" transform="translate(0.661 -33.739)"/></g></g></svg>