<svg 
 xmlns="http://www.w3.org/2000/svg"
 xmlns:xlink="http://www.w3.org/1999/xlink"
 width="48px" height="60px">
<path fill-rule="evenodd"  fill="rgb(72, 72, 72)"
 d="M24.469,60.000 C23.769,60.000 23.101,59.705 22.630,59.188 C20.412,56.762 0.966,35.140 0.966,23.124 C0.966,10.373 11.509,-0.000 24.469,-0.000 C37.428,-0.000 47.971,10.373 47.971,23.124 C47.971,35.140 28.526,56.762 26.308,59.188 C25.836,59.705 25.169,60.000 24.469,60.000 ZM24.469,4.999 C14.261,4.999 5.955,13.130 5.955,23.124 C5.955,30.858 17.986,46.289 24.468,53.742 C30.951,46.286 42.982,30.852 42.982,23.124 C42.982,13.130 34.677,4.999 24.469,4.999 ZM24.469,31.070 C20.098,31.070 16.542,27.505 16.542,23.124 C16.542,18.744 20.098,15.180 24.469,15.180 C28.840,15.180 32.396,18.744 32.396,23.124 C32.396,27.505 28.840,31.070 24.469,31.070 ZM24.469,20.180 C22.849,20.180 21.531,21.501 21.531,23.124 C21.531,24.748 22.849,26.070 24.469,26.070 C26.089,26.070 27.407,24.748 27.407,23.124 C27.407,21.501 26.089,20.180 24.469,20.180 Z"/>
</svg>