<svg 
 xmlns="http://www.w3.org/2000/svg"
 xmlns:xlink="http://www.w3.org/1999/xlink"
 width="60px" height="54px">
<path fill-rule="evenodd"  fill="rgb(72, 72, 72)"
 d="M29.999,53.968 C28.328,53.968 26.754,53.320 25.569,52.141 L6.156,32.817 C2.242,29.356 -0.001,24.398 -0.001,19.198 C-0.001,9.153 8.197,0.980 18.273,0.980 C22.590,0.980 26.742,2.505 29.999,5.231 C33.257,2.505 37.408,0.980 41.724,0.980 C51.802,0.980 60.000,9.153 60.000,19.198 C60.000,24.397 57.756,29.356 53.843,32.817 L34.431,52.139 C33.244,53.319 31.670,53.968 29.999,53.968 ZM18.273,6.011 C10.953,6.011 4.999,11.927 4.999,19.198 C4.999,22.970 6.640,26.571 9.501,29.077 L9.619,29.186 L29.085,48.563 C29.574,49.052 30.420,49.054 30.917,48.562 L50.497,29.078 C53.359,26.571 54.999,22.969 54.999,19.198 C54.999,11.927 49.045,6.011 41.724,6.011 C37.951,6.011 34.354,7.609 31.856,10.393 L29.999,12.463 L28.143,10.393 C25.645,7.609 22.047,6.011 18.273,6.011 Z"/>
</svg>