<svg 
 xmlns="http://www.w3.org/2000/svg"
 xmlns:xlink="http://www.w3.org/1999/xlink"
 width="42px" height="42px">
<path fill-rule="evenodd"  fill="rgb(255, 255, 255)"
 d="M35.499,42.000 L6.499,42.000 C2.915,42.000 -0.001,39.084 -0.001,35.499 L-0.001,10.347 C-0.001,6.763 2.915,3.847 6.499,3.847 L11.439,3.847 L11.439,1.500 C11.439,0.671 12.110,-0.000 12.939,-0.000 C13.767,-0.000 14.438,0.671 14.438,1.500 L14.438,3.847 L19.499,3.847 L19.499,1.500 C19.499,0.671 20.171,-0.000 20.999,-0.000 C21.827,-0.000 22.499,0.671 22.499,1.500 L22.499,3.847 L27.561,3.847 L27.561,1.500 C27.561,0.671 28.232,-0.000 29.061,-0.000 C29.889,-0.000 30.561,0.671 30.561,1.500 L30.561,3.847 L35.499,3.847 C39.083,3.847 41.999,6.763 41.999,10.347 L41.999,35.499 C41.999,39.084 39.083,42.000 35.499,42.000 ZM39.000,10.347 C39.000,8.418 37.429,6.847 35.499,6.847 L6.499,6.847 C4.570,6.847 2.999,8.418 2.999,10.347 L2.999,11.389 L39.000,11.389 L39.000,10.347 ZM39.000,14.389 L2.999,14.389 L2.999,35.499 C2.999,37.429 4.570,38.999 6.499,38.999 L35.499,38.999 C37.429,38.999 39.000,37.429 39.000,35.499 L39.000,14.389 ZM20.442,31.823 C20.151,32.108 19.773,32.250 19.395,32.250 C19.017,32.250 18.638,32.108 18.347,31.823 L13.294,26.889 C12.701,26.311 12.689,25.361 13.268,24.768 C13.848,24.175 14.797,24.165 15.390,24.743 L19.395,28.654 L26.609,21.610 C27.203,21.032 28.152,21.043 28.731,21.635 C29.310,22.228 29.298,23.178 28.705,23.757 L20.442,31.823 Z"/>
</svg>