<svg xmlns="http://www.w3.org/2000/svg" viewBox="15462 -279 16 20"><defs><style>.a{fill:#70bf75;}.b,.c{stroke:none;}.c{fill:#fff;}</style></defs><g class="a" transform="translate(15463 -278)"><path class="b" d="M 7 18.5 C 6.693240165710449 18.5 6.35998010635376 18.3630199432373 6.150990009307861 18.15102958679199 L 6.139309883117676 18.13919067382813 L 6.1284499168396 18.12660026550293 C 6.097249984741211 18.09044075012207 6.055429935455322 18.04245948791504 6.004030227661133 17.98349952697754 C 3.036920070648193 14.5797700881958 -0.5 9.893930435180664 -0.5 6.900000095367432 C -0.5 2.819629907608032 2.864490032196045 -0.5 7 -0.5 C 11.13551044464111 -0.5 14.5 2.819629907608032 14.5 6.900000095367432 C 14.5 9.847689628601074 11.03816032409668 14.4740104675293 8.134030342102051 17.83595085144043 C 8.0631103515625 17.91805076599121 8.008760452270508 17.9809398651123 7.973450183868408 18.02272987365723 L 7.96107006072998 18.03738021850586 L 7.9475998878479 18.05102920532227 C 7.653890132904053 18.34894943237305 7.335070133209229 18.5 7 18.5 Z"/><path class="c" d="M 7 18 C 7.197179794311523 18 7.394370079040527 17.89999961853027 7.591549873352051 17.70000076293945 C 8.183099746704102 17 14 10.5 14 6.900000095367432 C 14 3.099999904632568 10.84506988525391 0 7 0 C 3.154930114746094 0 -8.881784197001252e-16 3.099999904632568 -8.881784197001252e-16 6.900000095367432 C -8.881784197001252e-16 10.5 5.81689977645874 17 6.507040023803711 17.79999923706055 C 6.605629920959473 17.89999961853027 6.802820205688477 18 7 18 M 7 19 C 6.559490203857422 19 6.097740173339844 18.80920028686523 5.794929981231689 18.5020694732666 L 5.771580219268799 18.47838973999023 L 5.749859809875488 18.45319938659668 C 5.719079971313477 18.41753005981445 5.677830219268799 18.37021064758301 5.627130031585693 18.31204986572266 C 5.089419841766357 17.69522094726563 3.453130006790161 15.81814002990723 1.962010025978088 13.6689395904541 C -0.03112000040709972 10.79619979858398 -1 8.582059860229492 -1 6.900000095367432 C -1 2.543930053710938 2.588789939880371 -1 7 -1 C 11.41121006011963 -1 15 2.543930053710938 15 6.900000095367432 C 15 8.558500289916992 14.058030128479 10.7351598739624 12.12024974822998 13.55436038970947 C 10.66734027862549 15.66814994812012 9.101779937744141 17.48052024841309 8.512410163879395 18.16279983520508 C 8.443050384521484 18.24308967590332 8.389880180358887 18.30459022521973 8.355340003967285 18.34546089172363 L 8.33059024810791 18.37475967407227 L 8.30366039276123 18.40206909179688 C 7.81643009185791 18.89625930786133 7.325799942016602 19 7 19 Z"/></g></svg>