<svg xmlns="http://www.w3.org/2000/svg" viewBox="15461 -233 23 29"><defs><style>.a{fill:#fff;}.b,.c{stroke:none;}.c{fill:#70bf75;}</style></defs><g class="a" transform="translate(15463 -231)"><path class="b" d="M 9.5 26 C 8.990139961242676 26 8.457830429077148 25.77622985839844 8.110810279846191 25.4160099029541 L 8.087789535522461 25.39211082458496 L 8.066399574279785 25.36673927307129 C 8.024319648742676 25.31682014465332 7.967909812927246 25.25060081481934 7.898580074310303 25.16921043395996 C 3.83909010887146 20.40341949462891 -1 13.83080959320068 -1 9.583330154418945 C -1 6.766640186309814 0.0949999988079071 4.111899852752686 2.083290100097656 2.108139991760254 C 4.072140216827393 0.1038300022482872 6.706110000610352 -1 9.5 -1 C 12.29388999938965 -1 14.92786026000977 0.1038300022482872 16.91670989990234 2.108139991760254 C 18.90500068664551 4.111899852752686 20 6.766640186309814 20 9.583330154418945 C 20 11.77075958251953 18.70825958251953 14.80315017700195 16.16066932678223 18.59626960754395 C 14.20071983337402 21.51444053649902 12.08588027954102 24.01996040344238 11.28973007202148 24.96318054199219 C 11.19441986083984 25.07608985900879 11.12135982513428 25.16259002685547 11.07390975952148 25.22006034851074 L 11.04953956604004 25.24957084655762 L 11.02299022674561 25.27713012695313 C 10.56089019775391 25.75679016113281 10.04848003387451 26 9.5 26 Z"/><path class="c" d="M 9.5 25 C 9.767609596252441 25 10.03520965576172 24.86111068725586 10.30282020568848 24.58333015441895 C 11.10562992095947 23.61111068725586 19 14.58333015441895 19 9.583330154418945 C 19 4.305560111999512 14.71831035614014 -1.77635683940025e-15 9.5 -1.77635683940025e-15 C 4.281690120697021 -1.77635683940025e-15 0 4.305560111999512 0 9.583330154418945 C 0 14.58333015441895 7.894370079040527 23.61111068725586 8.830989837646484 24.72221946716309 C 8.964790344238281 24.86111068725586 9.232399940490723 25 9.5 25 M 9.5 27 C 8.716170310974121 27 7.927619934082031 26.66720962524414 7.390629768371582 26.10979080200195 L 7.344590187072754 26.0620002746582 L 7.301809787750244 26.01125907897949 C 7.260560035705566 25.96232032775879 7.205269813537598 25.89743041992188 7.137320041656494 25.81764984130859 C 6.40215015411377 24.95457077026367 4.164929866790771 22.32810974121094 2.122359991073608 19.31522941589355 C -0.6515700221061707 15.2235803604126 -2 12.04024982452393 -2 9.583330154418945 C -2 6.50098991394043 -0.8019499778747559 3.596100091934204 1.373450040817261 1.403779983520508 C 3.551470041275024 -0.7911800146102905 6.437530040740967 -2 9.5 -2 C 12.56247043609619 -2 15.44853019714355 -0.7911800146102905 17.62655067443848 1.403779983520508 C 19.80195045471191 3.596100091934204 21 6.50098991394043 21 9.583330154418945 C 21 13.18387985229492 17.9901008605957 18.57542037963867 12.05389022827148 25.60819053649902 C 11.96164989471436 25.71747016906738 11.89093017578125 25.80117034912109 11.84500026702881 25.85677909851074 L 11.79625988006592 25.91580963134766 L 11.74314975738525 25.9709300994873 C 10.92376041412354 26.82147026062012 10.07104969024658 27 9.5 27 Z"/></g></svg>