<svg xmlns="http://www.w3.org/2000/svg" viewBox="15535 -344 16.2 20"><defs><style>.a{fill:#c081d2;}.b,.c{stroke:none;}.c{fill:#fff;}</style></defs><g class="a" transform="translate(15536 -343)"><path class="b" d="M 7.099999904632568 18.5 C 6.791939735412598 18.5 6.456900119781494 18.36400985717773 6.246449947357178 18.15354919433594 L 6.23466968536377 18.14178085327148 L 6.223710060119629 18.12924957275391 C 6.192070007324219 18.09308052062988 6.149640083312988 18.04511070251465 6.097509860992432 17.98613929748535 C 3.08774995803833 14.58211994171143 -0.5000001192092896 9.895589828491211 -0.5000001192092896 6.900000095367432 C -0.5000001192092896 2.819629907608032 2.909349918365479 -0.5 7.099999904632568 -0.5 C 11.29065036773682 -0.5 14.69999980926514 2.819629907608032 14.69999980926514 6.900000095367432 C 14.69999980926514 9.849340438842773 11.18838977813721 14.47636032104492 8.242520332336426 17.83860015869141 C 8.17057991027832 17.92070007324219 8.115449905395508 17.98361015319824 8.079629898071289 18.02540016174316 L 8.067130088806152 18.03997993469238 L 8.053549766540527 18.05355072021484 C 7.757309913635254 18.34979057312012 7.436490058898926 18.5 7.099999904632568 18.5 Z"/><path class="c" d="M 7.099999904632568 18 C 7.299999713897705 18 7.5 17.89999961853027 7.699999809265137 17.70000076293945 C 8.300000190734863 17 14.19999980926514 10.5 14.19999980926514 6.900000095367432 C 14.19999980926514 3.099999904632568 11 0 7.099999904632568 0 C 3.199999809265137 0 -9.536743306171047e-08 3.099999904632568 -9.536743306171047e-08 6.900000095367432 C -9.536743306171047e-08 10.5 5.900000095367432 17 6.599999904632568 17.79999923706055 C 6.699999809265137 17.89999961853027 6.900000095367432 18 7.099999904632568 18 M 7.099999904632568 19 C 6.659460067749023 19 6.196919918060303 18.81113052368164 5.892889976501465 18.50711059570313 L 5.869349956512451 18.48356056213379 L 5.847419738769531 18.45849990844727 C 5.81620979309082 18.42283058166504 5.774359703063965 18.37550926208496 5.722929954528809 18.31734085083008 C 5.17756986618042 17.70054054260254 3.517979860305786 15.8235502243042 2.005589962005615 13.67440986633301 C -0.01686009578406811 10.80045032501221 -1.00000011920929 8.58452033996582 -1.00000011920929 6.900000095367432 C -1.00000011920929 2.543930053710938 2.633639812469482 -1 7.099999904632568 -1 C 11.5663595199585 -1 15.19999980926514 2.543930053710938 15.19999980926514 6.900000095367432 C 15.19999980926514 8.56095027923584 14.24415969848633 10.73939037322998 12.27785015106201 13.55980968475342 C 10.80422019958496 15.67354965209961 9.216360092163086 17.48583984375 8.618590354919434 18.16810035705566 C 8.548230171203613 18.24839973449707 8.494290351867676 18.3099193572998 8.459259986877441 18.35079002380371 L 8.434260368347168 18.37994956970215 L 8.407110214233398 18.4071102142334 C 7.917069911956787 18.89714050292969 7.425819873809814 19 7.099999904632568 19 Z"/></g></svg>