<svg id="레이어_1" data-name="레이어 1" xmlns="http://www.w3.org/2000/svg" xmlns:xlink="http://www.w3.org/1999/xlink" preserveAspectRatio="none" viewBox="0 0 5385.8 5385.8">
  <defs>
    <style>
      .cls-1 {
        fill: none;
      }

      .cls-2 {
        clip-path: url(#clip-path);
      }

      .cls-3 {
        clip-path: url(#clip-path-2);
      }

      .cls-4 {
        fill: #005da7;
      }
    </style>
    <clipPath id="clip-path">
      <rect id="_Clipping_Path_" data-name="&lt;Clipping Path&gt;" class="cls-1" x="5668.8" y="-1925.4" width="21.2" height="29.4"/>
    </clipPath>
    <clipPath id="clip-path-2">
      <rect id="_Clipping_Path_2" data-name="&lt;Clipping Path&gt;" class="cls-1" x="5668.8" y="-1925.4" width="20.7" height="29.4"/>
    </clipPath>
  </defs>
  <title>1c1d289b-bfb2-4e84-a559-a2b754f7bc2b</title>
  <g id="_Clip_Group_" data-name="&lt;Clip Group&gt;">
    <g class="cls-2">
      <g id="_Clip_Group_2" data-name="&lt;Clip Group&gt;">
        <g class="cls-3">
          <path id="_Path_" data-name="&lt;Path&gt;" class="cls-4" d="M5690-1898.6l-1.1-8.2a5.6,5.6,0,0,0-5.6-4.9h-7.8a5.6,5.6,0,0,0-5.6,4.9l-1.1,8.2a2.3,2.3,0,0,0,.5,1.7,2.2,2.2,0,0,0,1.5.8H5688a2.2,2.2,0,0,0,1.5-.8,2.3,2.3,0,0,0,.5-1.7"/>
          <path id="_Path_2" data-name="&lt;Path&gt;" class="cls-4" d="M5685.5-1919.5a6,6,0,0,1-6.1,6,6,6,0,0,1-6.1-6,6,6,0,0,1,6.1-6,6,6,0,0,1,6.1,6"/>
        </g>
      </g>
    </g>
  </g>
</svg>
