<svg xmlns="http://www.w3.org/2000/svg" viewBox="-167 3 100 22"><defs><style>.a{fill:#f58850;}</style></defs><g transform="translate(-227 -51)"><g transform="translate(60 54)"><path class="a" d="M22.532,26.085H19.367v-6.83l-3.228-3.087-3.291,3.087v6.83H9.684v-6.83L6.392,16.169,3.165,19.255v6.83H0V17.679L6.392,11.9l4.873,4.334L16.139,11.9l6.392,5.779Z" transform="translate(0 -4.085)"/><path class="a" d="M48.742,4.925,46.4,2.5,48.742,0l2.342,2.43ZM47.159,8.8h3.165V22H47.159Z" transform="translate(-17.033)"/><path class="a" d="M79.787,26.085H76.623v-6.83l-3.861-3.087-3.8,3.087v6.83H65.8V17.679L72.762,11.9l7.025,5.779Z" transform="translate(-24.154 -4.085)"/><path class="a" d="M101.8,10.345h9.557V4.5h3.165V23.545H101.8Zm9.557,3.284h-6.392v6.633h6.392Z" transform="translate(-37.37 -1.545)"/><path class="a" d="M149.887,26.085h-3.165v-6.83l-3.861-3.087-3.8,3.087v6.83H135.9V17.679l6.962-5.779,7.025,5.779Z" transform="translate(-49.887 -4.085)"/></g><path class="a" d="M145.542,28.185,143.2,25.742l2.342-2.442,2.405,2.442Z" transform="translate(7.433 46.08)"/></g></svg>