<svg 
 xmlns="http://www.w3.org/2000/svg"
 xmlns:xlink="http://www.w3.org/1999/xlink"
 width="111px" height="23px">
<path fill-rule="evenodd"  fill="rgb(255, 255, 255)"
 d="M107.463,22.998 L107.463,15.852 L103.209,12.656 L98.982,15.852 L98.982,22.998 L95.446,22.998 L95.446,14.214 L103.209,8.187 L111.000,14.214 L111.000,22.998 L107.463,22.998 ZM71.546,9.173 L82.155,9.173 L82.155,3.092 L85.692,3.092 L85.692,9.173 L85.692,12.630 L85.692,19.542 L85.692,22.998 L71.546,22.998 L71.546,9.173 ZM75.083,19.542 L82.155,19.542 L82.155,12.630 L75.083,12.630 L75.083,19.542 ZM58.229,15.852 L53.975,12.656 L49.747,15.852 L49.747,22.998 L46.210,22.998 L46.210,14.214 L53.975,8.187 L61.765,14.214 L61.765,22.998 L58.229,22.998 L58.229,15.852 ZM32.623,2.547 L35.229,0.000 L37.862,2.547 L35.229,5.120 L32.623,2.547 ZM21.482,15.852 L17.893,12.656 L14.277,15.852 L14.277,22.998 L10.741,22.998 L10.741,15.852 L7.125,12.656 L3.535,15.852 L3.535,22.998 L-0.000,22.998 L-0.000,14.214 L7.125,8.187 L12.523,12.733 L17.893,8.187 L25.019,14.214 L25.019,22.998 L21.482,22.998 L21.482,15.852 ZM37.011,22.998 L33.475,22.998 L33.475,9.173 L37.011,9.173 L37.011,22.998 ZM105.841,18.536 L103.210,21.108 L100.604,18.536 L103.210,15.989 L105.841,18.536 Z"/>
</svg>