<svg xmlns="http://www.w3.org/2000/svg" viewBox="-852 -6122 60 60"><defs><style>.a{fill:#1cb7eb;}.b{fill:#fff;}</style></defs><g transform="translate(-852 -6122)"><circle class="a" cx="30" cy="30" r="30"/><g transform="translate(16 17)"><path class="b" d="M39.9,15.711a8.976,8.976,0,0,1-3.359,1.008,6.239,6.239,0,0,0,2.575-3.471,12.953,12.953,0,0,1-3.807,1.568A5.715,5.715,0,0,0,31.054,12.8a6.153,6.153,0,0,0-5.934,6.382,6.384,6.384,0,0,0,.112,1.456,16.389,16.389,0,0,1-12.2-6.606,6.076,6.076,0,0,0-.784,3.247,6.369,6.369,0,0,0,2.575,5.263,5.391,5.391,0,0,1-2.687-.784v.112a6.416,6.416,0,0,0,4.7,6.27,6.608,6.608,0,0,1-1.568.224,3.809,3.809,0,0,1-1.12-.112,5.82,5.82,0,0,0,5.486,4.367,11.434,11.434,0,0,1-7.278,2.687,6.887,6.887,0,0,1-1.456-.112,15.908,15.908,0,0,0,9.069,2.911c10.861,0,16.8-9.629,16.8-18.027v-.784A13.377,13.377,0,0,0,39.9,15.711Z" transform="translate(-10.9 -12.8)"/></g></g></svg>