<svg xmlns="http://www.w3.org/2000/svg" viewBox="-780 -6122 60 60"><defs><style>.a{fill:#ffe100;}.b{fill:#3c1e1e;fill-rule:evenodd;}</style></defs><g transform="translate(-966 -6917)"><circle class="a" cx="30" cy="30" r="30" transform="translate(186 795)"/><g transform="translate(72 667)"><path class="b" d="M144,170.6a20.825,20.825,0,0,1-2.8-.188l-7.137,3.212,1.229-5c-4.39-2.193-7.294-6-7.294-10.322,0-6.794,7.163-12.3,16-12.3s16,5.507,16,12.3S152.837,170.6,144,170.6Zm-5.085-15.621h-4.708c-1.037-.027-.774,1.5-.24,1.515.428.014,1.676,0,1.676,0v5.341c0,.815,1.6.885,1.6,0V156.5s.9.01,1.676,0S139.66,154.981,138.915,154.981Zm5.985,6.856c-.121-.348-1.979-5.688-2.155-6.138-.484-1.239-1.8-1.073-2.314.08-.356.8-1.832,5-2.075,5.66-.323.885,1.121,1.692,1.516.638s.4-1.116.4-1.116l2.793.08a3.178,3.178,0,0,0,.319.957C143.725,162.828,145.118,162.465,144.9,161.836Zm4.229-.957h-2V155.7a.838.838,0,1,0-1.676,0v6.058a.673.673,0,0,0,.718.638h2.953C149.815,162.394,149.934,160.88,149.13,160.88Zm6.464-4.783c.5-.495-.578-1.5-1.117-.956s-2.633,2.631-2.633,2.631-.08-1.232-.08-2.232-1.6-.77-1.6,0v6.218a.8.8,0,0,0,1.6,0v-2.073l.479-.239s1.4,1.87,1.995,2.631c.764.975,2.109.044,1.436-.8s-2.234-2.95-2.234-2.95S155.1,156.592,155.594,156.1Zm-13.965.638.958,2.79h-1.915Z"/></g></g></svg>