<svg 
 xmlns="http://www.w3.org/2000/svg"
 xmlns:xlink="http://www.w3.org/1999/xlink"
 width="132px" height="118px">
<path fill-rule="evenodd"  fill="rgb(245, 136, 80)"
 d="M113.332,81.321 L113.332,42.085 L94.399,24.539 L75.319,42.085 L75.319,81.321 L56.665,81.321 L56.665,42.085 L37.587,24.539 L18.654,42.085 L18.654,81.321 L-0.001,81.321 L-0.001,33.099 L37.587,-0.001 L66.065,24.965 L94.399,-0.001 L131.991,33.099 L131.991,81.321 L113.332,81.321 ZM24.237,102.430 C25.120,103.360 25.560,104.601 25.560,106.154 C25.560,107.678 25.103,108.919 24.191,109.879 C23.167,110.937 21.718,111.466 19.843,111.466 L15.426,111.466 L15.426,118.001 L12.473,118.001 L12.473,100.845 L19.891,100.845 C21.796,100.845 23.245,101.374 24.237,102.430 ZM15.426,103.200 L15.426,109.111 L19.583,109.111 C21.664,109.079 22.702,108.093 22.702,106.154 C22.702,104.217 21.647,103.232 19.537,103.200 L15.426,103.200 ZM34.445,100.845 L40.846,118.001 L37.776,118.001 L36.263,113.749 L29.436,113.749 L27.876,118.001 L24.900,118.001 L31.398,100.845 L34.445,100.845 ZM35.626,111.562 L32.956,104.185 L32.838,104.185 L30.145,111.562 L35.626,111.562 ZM54.832,102.046 C55.761,102.863 56.227,104.017 56.227,105.506 C56.258,107.684 55.297,109.126 53.345,109.832 L53.345,109.879 C55.060,110.280 55.950,111.673 56.015,114.060 C56.061,116.159 56.266,117.474 56.627,118.001 L53.674,118.001 C53.596,117.794 53.422,116.462 53.156,114.013 C53.045,112.940 52.776,112.179 52.353,111.729 C51.864,111.234 51.061,110.984 49.943,110.984 L45.618,110.984 L45.618,118.001 L42.665,118.001 L42.665,100.845 L50.886,100.845 C52.587,100.845 53.903,101.246 54.832,102.046 ZM45.618,103.200 L45.618,108.798 L50.060,108.798 C50.989,108.798 51.745,108.574 52.327,108.126 C52.973,107.628 53.296,106.899 53.296,105.939 C53.296,104.113 52.241,103.200 50.132,103.200 L45.618,103.200 ZM71.678,103.392 L66.409,103.392 L66.409,118.001 L63.433,118.001 L63.433,103.392 L58.164,103.392 L58.164,100.845 L71.678,100.845 L71.678,103.392 ZM84.908,113.531 L84.954,113.531 L84.954,100.845 L87.719,100.845 L87.719,118.001 L84.720,118.001 L76.638,105.337 L76.592,105.337 L76.592,118.001 L73.828,118.001 L73.828,100.845 L76.804,100.845 L84.908,113.531 ZM81.710,49.936 L93.843,37.592 L106.102,49.936 L93.843,62.407 L81.710,49.936 ZM103.548,103.392 L94.216,103.392 L94.216,108.149 L102.839,108.149 L102.839,110.359 L94.216,110.359 L94.216,115.575 L103.714,115.575 L103.714,118.001 L91.263,118.001 L91.263,100.845 L103.548,100.845 L103.548,103.392 ZM118.572,102.046 C119.501,102.863 119.966,104.017 119.966,105.506 C119.998,107.684 119.037,109.126 117.084,109.832 L117.084,109.879 C118.800,110.280 119.689,111.673 119.754,114.060 C119.801,116.159 120.006,117.474 120.367,118.001 L117.414,118.001 C117.336,117.794 117.162,116.462 116.896,114.013 C116.785,112.940 116.516,112.179 116.092,111.729 C115.604,111.234 114.800,110.984 113.682,110.984 L109.358,110.984 L109.358,118.001 L106.404,118.001 L106.404,100.845 L114.626,100.845 C116.327,100.845 117.642,101.246 118.572,102.046 ZM109.358,103.200 L109.358,108.798 L113.800,108.798 C114.729,108.798 115.484,108.574 116.067,108.126 C116.713,107.628 117.036,106.899 117.036,105.939 C117.036,104.113 115.981,103.200 113.871,103.200 L109.358,103.200 Z"/>
</svg>