<svg xmlns="http://www.w3.org/2000/svg" viewBox="3075 2030 16 16">
  <defs>
    <style>
      .cls-1 {
        fill: #fff;
      }
    </style>
  </defs>
  <g id="그룹_212" data-name="그룹 212" transform="translate(3075 2030)">
    <path id="패스_58" data-name="패스 58" class="cls-1" d="M9.968,8.1,7.483,10.6,5.992,9.3A.659.659,0,0,0,5,9.3a.671.671,0,0,0,0,1l1.888,1.8a.717.717,0,0,0,.994,0l3.081-3a.788.788,0,0,0,0-1.1A.75.75,0,0,0,9.968,8.1Z" transform="translate(-0.03 0)"/>
    <path id="패스_59" data-name="패스 59" class="cls-1" d="M12.124,1.4h-.5V.8a.712.712,0,0,0-.7-.8.786.786,0,0,0-.8.8v.7H8.745V.8a.786.786,0,0,0-.8-.8.712.712,0,0,0-.7.8v.7H5.764V.8a.786.786,0,0,0-.8-.8.712.712,0,0,0-.7.8v.7h-.5A3.641,3.641,0,0,0,0,5.2v7A3.787,3.787,0,0,0,3.776,16h8.447A3.787,3.787,0,0,0,16,12.2v-7A3.939,3.939,0,0,0,12.124,1.4ZM3.776,2.9h8.447a2.074,2.074,0,0,1,1.988,1.3H1.689A2.512,2.512,0,0,1,3.776,2.9Zm8.348,11.6H3.776a2.256,2.256,0,0,1-2.286-2.3V5.7H14.41v6.5A2.256,2.256,0,0,1,12.124,14.5Z"/>
  </g>
</svg>
