<svg xmlns="http://www.w3.org/2000/svg" viewBox="-8381 -4161 66.101 55.1"><defs><style>.a,.c{fill:#fff;}.a,.b{stroke:#484848;stroke-miterlimit:10;stroke-width:0.2px;}.b,.d{fill:#484848;}</style></defs><g transform="translate(-8381 -4161)"><g transform="translate(22.098 16.427)"><path class="a" d="M36.866,11.5c11.854,0,21.366,7.627,21.366,16.867,0,6.16-4.1,11.44-10.244,14.373.878,1.907,2.341,4.693,4.39,6.307A20.662,20.662,0,0,1,41.7,44.793a25.715,25.715,0,0,1-4.829.44c-11.854,0-21.366-7.627-21.366-16.867S25.159,11.5,36.866,11.5Z" transform="translate(-14.915 -11.06)"/><path class="b" d="M52.563,49.773a22.786,22.786,0,0,1-10.829-4.107,25.305,25.305,0,0,1-4.683.44C24.9,46.107,15.1,38.333,15.1,28.653S24.9,11.2,37.051,11.2,59,18.973,59,28.653c0,6.013-3.8,11.44-10.1,14.667a15.641,15.641,0,0,0,3.951,5.573c.146.147.293.44.146.587,0,.147-.146.293-.439.293ZM16.271,28.507c0,8.947,9.366,16.28,20.78,16.28a26.525,26.525,0,0,0,4.683-.44.537.537,0,0,1,.439.147,21.749,21.749,0,0,0,8.634,3.813,20.48,20.48,0,0,1-3.22-5.28.536.536,0,0,1,.293-.733c6.146-3.08,9.951-8.213,9.951-13.933,0-8.947-9.366-16.28-20.78-16.28S16.271,19.56,16.271,28.507Z" transform="translate(-15.1 -11.2)"/></g><path class="c" d="M28.3.5C12.939.5.5,10.327.5,22.5c0,7.92,5.415,14.96,13.317,18.773-1.171,2.493-3.073,6.16-5.707,8.213a27.844,27.844,0,0,0,13.9-5.427,43.571,43.571,0,0,0,6.146.587c15.366,0,27.8-9.827,27.8-22C56.11,10.327,43.671.5,28.3.5Z" transform="translate(0.232 0.233)"/><path class="d" d="M8.341,50.307a.8.8,0,0,1-.732-.44c-.146-.293,0-.587.293-.88,2.341-1.76,4.244-4.987,5.268-7.187C4.976,37.547,0,30.507,0,22.733,0,10.267,12.732,0,28.537,0S57.073,10.267,57.073,22.733,44.341,45.467,28.537,45.467a28.659,28.659,0,0,1-6-.587,27.554,27.554,0,0,1-14.2,5.427Zm20.2-48.84C13.61,1.467,1.463,11,1.463,22.733c0,7.48,4.829,14.227,12.878,18.04a.843.843,0,0,1,.293,1.027,27.764,27.764,0,0,1-4.1,6.747A27.54,27.54,0,0,0,21.8,43.56a.878.878,0,0,1,.585-.147A29.093,29.093,0,0,0,28.537,44C43.463,44,55.61,34.467,55.61,22.733S43.463,1.467,28.537,1.467Z"/><g transform="translate(15.366 22.733)"><ellipse class="d" cx="1.463" cy="1.467" rx="1.463" ry="1.467"/><ellipse class="d" cx="1.463" cy="1.467" rx="1.463" ry="1.467" transform="translate(11.707)"/><ellipse class="d" cx="1.463" cy="1.467" rx="1.463" ry="1.467" transform="translate(23.415)"/></g></g></svg>