<svg xmlns="http://www.w3.org/2000/svg" viewBox="-8946 -4173 66 79"><defs><style>.a{fill:#484848;}</style></defs><g transform="translate(-8946 -4172.9)"><g transform="translate(0 21.577)"><rect class="a" width="12.91" height="1.606" transform="translate(18.396 51.543)"/><rect class="a" width="12.91" height="1.606" transform="translate(36.147 51.543)"/><path class="a" d="M33.561,50.943,33.4,49.337A11.967,11.967,0,0,0,43.889,38.9l1.614.161A13.517,13.517,0,0,1,33.561,50.943Z" transform="translate(20.497 2.045)"/><path class="a" d="M44.18,40.1A12.1,12.1,0,0,0,32.4,31.106V29.5A13.474,13.474,0,0,1,45.632,39.776Z" transform="translate(19.884 -3.648)"/><rect class="a" width="12.91" height="1.606" transform="translate(34.533 25.852)"/><rect class="a" width="12.91" height="1.606" transform="translate(16.782 25.852)"/><path class="a" d="M11.941,34.882A13.51,13.51,0,0,1,0,23.161L1.614,23A11.967,11.967,0,0,0,12.1,33.437Z" transform="translate(0 -7.585)"/><path class="a" d="M1.814,24.158.2,23.676A13.749,13.749,0,0,1,13.432,13.4v1.606A12.237,12.237,0,0,0,1.814,24.158Z" transform="translate(0.123 -13.4)"/><rect class="a" width="12.91" height="1.606" transform="translate(18.396 0.161)"/></g><g transform="translate(30.499 -0.1)"><path class="a" d="M29.873,29.605a.823.823,0,0,1-.807-.642,20.76,20.76,0,0,0-5.325-8.35c-2.421-2.73-4.841-5.3-4.841-9.795A11.283,11.283,0,0,1,29.873-.1,11.283,11.283,0,0,1,40.846,10.819c0,4.5-2.421,7.065-4.841,9.795a20.76,20.76,0,0,0-5.325,8.35A.823.823,0,0,1,29.873,29.605Zm0-27.939a9.789,9.789,0,0,0-9.359,9.313c0,3.854,2.1,6.1,4.357,8.831a25.091,25.091,0,0,1,4.841,6.9,29.07,29.07,0,0,1,4.841-6.9c2.421-2.569,4.357-4.817,4.357-8.831C39.233,6.162,34.714,1.666,29.873,1.666Z" transform="translate(-18.9 0.1)"/><path class="a" d="M27.3,12.55a4.262,4.262,0,0,1-4.2-4.175,4.2,4.2,0,0,1,8.391,0A4.156,4.156,0,0,1,27.3,12.55Zm0-6.744a2.569,2.569,0,1,0,2.582,2.569A2.543,2.543,0,0,0,27.3,5.806Z" transform="translate(-16.322 2.705)"/></g><g transform="translate(2.259 57.545)"><path class="a" d="M9.307,57.156c-.323,0-.645-.161-.645-.482A15.622,15.622,0,0,0,4.95,50.733C3.175,48.806,1.4,46.879,1.4,43.668A8.117,8.117,0,0,1,9.307,35.8a8.117,8.117,0,0,1,7.907,7.868c0,3.211-1.775,5.138-3.55,7.065a14.466,14.466,0,0,0-3.711,5.941C9.953,57,9.63,57.156,9.307,57.156Zm0-19.911a6.678,6.678,0,0,0-6.455,6.423c0,2.73,1.452,4.335,3.066,6.1a21.775,21.775,0,0,1,3.389,4.657A21.775,21.775,0,0,1,12.7,49.77c1.614-1.927,3.066-3.372,3.066-6.1A6.678,6.678,0,0,0,9.307,37.245Z" transform="translate(-1.4 -35.8)"/><path class="a" d="M7.466,44.9A3.056,3.056,0,0,1,4.4,41.851,3.166,3.166,0,0,1,7.466,38.8a3.056,3.056,0,1,1,0,6.1Zm0-4.657a1.613,1.613,0,0,0-1.614,1.606,1.731,1.731,0,0,0,1.614,1.606,1.606,1.606,0,1,0,0-3.211Z" transform="translate(0.441 -33.983)"/></g></g></svg>